# xmcd
#
# Track frame offsets:
# 150
# 17190
# 38028
# 59200
# 75111
# 94578
# 110875
# 131655
# 147245
# 165762
# 184030
# 201162
# 216912
# 237108
# 254199
# 272383
# 290400
# 305143
# 325462
# 340427
#
# Disc length: 4771 seconds
#
#
# Revision: 1
# Processed by: cddbd v1.5.2PL0 Copyright (c) Steve Scherf et al.
# Submitted via: FreeRIP 2.945 
#
DISCID=3012a114
DTITLE=Zeze di carmo e Luciano  As 20 mais - As 20 mais zeze di carmo e luciano
DYEAR=1900
DGENRE=Country
TTITLE0=A Ferro E Fogo
TTITLE1=Preciso De Um Tempo
TTITLE2=Passou Da Conta
TTITLE3=Pra Sempre Em Mim
TTITLE4=Nem Mais Uma Dúvida
TTITLE5=Refém Do Amor
TTITLE6=Meu País
TTITLE7=Quem É Ele
TTITLE8=Meninos De Rua
TTITLE9=Pão De Mel
TTITLE10=Irresistível
TTITLE11=Menina Veneno
TTITLE12=Romaria
TTITLE13=Mexe Que É Bom
TTITLE14=Você Vai Ver
TTITLE15=Vem Cuidar De Mim
TTITLE16=Dois Amigos
TTITLE17=Sufocado (Drowning)
TTITLE18=Coração De Vidro
TTITLE19=Coração Em Pedaços
EXTD=emerson@betim.mg.gov.br
EXTT0=
EXTT1=
EXTT2=
EXTT3=
EXTT4=
EXTT5=
EXTT6=
EXTT7=
EXTT8=
EXTT9=
EXTT10=
EXTT11=
EXTT12=
EXTT13=
EXTT14=
EXTT15=
EXTT16=
EXTT17=
EXTT18=
EXTT19=
PLAYORDER=
